<?xml version="1.0" encoding="utf-8"?>
<!-- Generator: Adobe Illustrator 23.0.0, SVG Export Plug-In . SVG Version: 6.00 Build 0)  -->
<svg version="1.1" id="Camada_1" xmlns="http://www.w3.org/2000/svg" xmlns:xlink="http://www.w3.org/1999/xlink" x="0px" y="0px"
	 viewBox="0 0 110 21" style="enable-background:new 0 0 110 21;" xml:space="preserve">
<style type="text/css">
	.st0{fill:#FFFFFF;}
	.st1{fill:none;}
</style>
<g>
	<path class="st0" d="M39.4,12.8h-6.1c0,0.9,0.3,1.5,0.7,1.9c0.4,0.4,1,0.6,1.8,0.6c0.5,0,0.9-0.1,1.4-0.2c0.5-0.2,0.9-0.4,1.3-0.7
		l0.7,1.9c-0.4,0.4-1,0.6-1.6,0.8c-0.6,0.2-1.3,0.3-1.9,0.3c-1.5,0-2.8-0.4-3.6-1.3c-0.9-0.9-1.3-2-1.3-3.5c0-0.9,0.2-1.8,0.6-2.5
		c0.4-0.7,0.9-1.3,1.6-1.7c0.7-0.4,1.5-0.6,2.3-0.6c1.3,0,2.3,0.4,3.1,1.3c0.7,0.8,1.1,2,1.1,3.4V12.8z M35.3,9.7
		c-0.5,0-0.9,0.2-1.3,0.5c-0.3,0.3-0.5,0.7-0.6,1.3h3.6C36.9,10.3,36.3,9.7,35.3,9.7z M46.5,7.8c0.4,0,0.7,0.1,1,0.2l0,2.5
		c-0.4-0.2-0.9-0.3-1.3-0.3c-0.7,0-1.3,0.2-1.7,0.6c-0.4,0.4-0.6,0.9-0.6,1.6v4.8h-2.7v-6.6c0-1,0-1.9-0.1-2.6h2.6l0.2,1.6
		c0.2-0.6,0.6-1,1.1-1.3C45.3,7.9,45.9,7.8,46.5,7.8z M48.6,17.2V8h2.7v9.2H48.6z M48.5,3.7h2.9v2.6h-2.9V3.7z M57.9,17.3
		c-1.5,0-2.7-0.4-3.5-1.3c-0.8-0.8-1.3-2-1.3-3.5c0-1,0.2-1.8,0.6-2.5c0.4-0.7,1-1.3,1.7-1.7c0.7-0.4,1.6-0.6,2.6-0.6
		c0.7,0,1.3,0.1,1.9,0.3c0.6,0.2,1.1,0.5,1.5,0.8l-0.7,1.9c-0.4-0.3-0.8-0.5-1.2-0.7c-0.4-0.2-0.9-0.3-1.3-0.3
		c-0.7,0-1.3,0.2-1.8,0.7c-0.4,0.4-0.6,1.1-0.6,2c0,0.9,0.2,1.6,0.6,2c0.4,0.4,1,0.7,1.8,0.7c0.4,0,0.8-0.1,1.3-0.2
		c0.4-0.2,0.8-0.4,1.2-0.7l0.7,1.9c-0.4,0.4-0.9,0.6-1.6,0.8C59.3,17.2,58.6,17.3,57.9,17.3z M72,8v9.2h-2.7v-1.4
		c-0.3,0.5-0.7,0.8-1.2,1.1s-1.1,0.4-1.7,0.4c-0.8,0-1.5-0.2-2.1-0.6c-0.6-0.4-1.1-0.9-1.4-1.7c-0.3-0.7-0.5-1.6-0.5-2.5
		c0-0.9,0.2-1.8,0.5-2.5c0.4-0.7,0.8-1.3,1.5-1.7c0.6-0.4,1.3-0.6,2.1-0.6c0.6,0,1.2,0.1,1.7,0.4s0.9,0.7,1.2,1.1V8H72z M67.2,15.2
		c0.7,0,1.2-0.2,1.6-0.7c0.4-0.5,0.5-1.1,0.5-2s-0.2-1.5-0.5-2c-0.4-0.5-0.9-0.7-1.6-0.7c-0.7,0-1.2,0.2-1.6,0.7
		c-0.4,0.5-0.6,1.2-0.6,2c0,0.9,0.2,1.5,0.5,2C66,15,66.5,15.2,67.2,15.2z M74.2,17.2V3.8H77v13.4H74.2z M85.6,8h2.7l-4,9.2h-2.3
		l-4-9.2h2.9l2.4,5.9L85.6,8z M97.3,12.8h-6.1c0,0.9,0.3,1.5,0.7,1.9c0.4,0.4,1,0.6,1.8,0.6c0.5,0,0.9-0.1,1.4-0.2
		c0.5-0.2,0.9-0.4,1.3-0.7l0.7,1.9c-0.4,0.4-1,0.6-1.6,0.8c-0.6,0.2-1.3,0.3-1.9,0.3c-1.5,0-2.8-0.4-3.6-1.3c-0.9-0.9-1.3-2-1.3-3.5
		c0-0.9,0.2-1.8,0.6-2.5c0.4-0.7,0.9-1.3,1.6-1.7c0.7-0.4,1.5-0.6,2.3-0.6c1.3,0,2.3,0.4,3.1,1.3c0.7,0.8,1.1,2,1.1,3.4V12.8z
		 M93.1,9.7c-0.5,0-0.9,0.2-1.3,0.5c-0.3,0.3-0.5,0.7-0.6,1.3h3.6C94.8,10.3,94.2,9.7,93.1,9.7z M102.5,17.3c-1.7,0-3.1-0.4-4.1-1.1
		l0.7-1.9c0.5,0.4,1,0.6,1.6,0.8c0.6,0.2,1.2,0.3,1.8,0.3c0.5,0,0.8-0.1,1.1-0.2c0.3-0.1,0.4-0.4,0.4-0.6c0-0.2-0.1-0.4-0.3-0.5
		c-0.2-0.1-0.5-0.2-1-0.3l-1.5-0.3c-0.9-0.2-1.5-0.5-2-0.9c-0.4-0.4-0.6-1-0.6-1.7c0-0.6,0.2-1.1,0.5-1.5c0.3-0.4,0.8-0.8,1.4-1
		c0.6-0.3,1.3-0.4,2-0.4c0.7,0,1.3,0.1,1.9,0.3c0.6,0.2,1.2,0.5,1.7,0.8l-0.8,1.8c-0.5-0.3-1-0.6-1.5-0.7c-0.5-0.2-1-0.3-1.4-0.3
		c-0.4,0-0.8,0.1-1.1,0.2c-0.3,0.2-0.4,0.4-0.4,0.7c0,0.2,0.1,0.4,0.2,0.5c0.2,0.1,0.4,0.2,0.8,0.3l1.5,0.3c0.9,0.2,1.6,0.5,2,1
		c0.4,0.4,0.6,1,0.6,1.7c0,0.9-0.4,1.6-1.1,2.1S103.7,17.3,102.5,17.3z"/>
	<g>
		<g>
			<path class="st1" d="M13.5,2.4c-4.4,0-8.1,3.6-8.1,8.1s3.6,8.1,8.1,8.1c3.6,0,6.7-2.4,7.7-5.7c-0.7,0.9-1.4,1.7-1.9,2.1L18.6,14
				c0,0,0,0,0,0l-1.7-1.6L16,11.7c0.8-1,3.1-4,3.6-5.1c0,0,0.2-0.3,0.5-0.7C18.7,3.8,16.2,2.4,13.5,2.4z"/>
			<path class="st0" d="M13.5,18.6c-4.4,0-8.1-3.6-8.1-8.1s3.6-8.1,8.1-8.1c2.7,0,5.2,1.4,6.6,3.5c0.3-0.5,0.7-1,1.2-1.6
				c-1.8-2.3-4.6-3.8-7.8-3.8C8,0.6,3.6,5,3.6,10.5s4.5,9.9,9.9,9.9s9.9-4.5,9.9-9.9c0-0.2,0-0.4,0-0.6c-0.7,1-1.5,2.1-2.2,3
				C20.2,16.2,17.1,18.6,13.5,18.6z"/>
		</g>
		<g>
			<path class="st1" d="M18.6,14l-1.7-1.6c0,0,3-3.8,3.8-5.3c0,0,0.1-0.1,0.1-0.2c-1.3-2.7-4.1-4.5-7.2-4.5c-4.4,0-8.1,3.6-8.1,8.1
				s3.6,8.1,8.1,8.1c4.4,0,8.1-3.6,8.1-8.1C20.5,12,19.4,13.4,18.6,14z"/>
			<path class="st0" d="M22,5.3c0.1,0.1-2.4,3.6-4.1,5.8l0,0c0,0,0,0.1-0.1,0.1c-0.2,0.3-0.4,0.5-0.6,0.8c-0.2,0.2-0.3,0.3-0.5,0.5
				c-0.5,0.4-1,0.7-1.5,0.9c-0.9,0.3-1.7,0.4-2.3,0.1c-0.6-0.3-1.2-0.9-1.6-1.9L18.2,9L18,8.5c-0.6-1.6-1.5-2.8-2.8-3.4
				C14,4.5,12.7,4.5,11.2,5c-1,0.4-1.8,1-2.4,1.7c-0.6,0.8-1,1.6-1.1,2.7c-0.1,1,0,2,0.4,3.1c0.6,1.7,1.7,2.8,3,3.4
				c1.4,0.6,3,0.5,4.7-0.1c0.7-0.3,1.4-0.7,2.1-1.2c0.2-0.2,0.4-0.4,0.6-0.6l0,0c0.7-0.6,1.9-2,2.9-3.5c0.6-0.8,1.1-1.6,1.6-2.3
				C22.9,7.2,22.5,6.2,22,5.3z M10.7,10.1c-0.1-0.7-0.1-1.3,0.1-1.8c0.2-0.5,0.7-0.8,1.3-1.1c1.2-0.5,2.1,0,2.8,1.3L10.7,10.1z"/>
		</g>
	</g>
</g>
</svg>
